<svg xmlns="http://www.w3.org/2000/svg" viewBox="0 0 96.76 96.76"><defs><style>.cls-1{fill:none;}.cls-2{fill:#a8eee7;}.cls-3{fill:#093447;}.cls-4{fill:#006163;}</style></defs><title>method-ch2</title><g id="Layer_2" data-name="Layer 2"><g id="Layer_1-2" data-name="Layer 1"><rect class="cls-1" width="96.76" height="96.76"/><path class="cls-2" d="M48.38,32.51a15.81,15.81,0,0,1,9.71,3.33L78.68,15.26A44.88,44.88,0,0,0,3.54,46.38H32.65A15.85,15.85,0,0,1,48.38,32.51Z"/><path class="cls-2" d="M81.51,18.08,60.92,38.67A15.84,15.84,0,0,1,56.3,62.12L67.55,89a44.91,44.91,0,0,0,14-70.9Z"/><path class="cls-2" d="M32.65,50.38H3.54A44.92,44.92,0,0,0,63.86,90.53L52.61,63.66a15.55,15.55,0,0,1-4.23.59A15.85,15.85,0,0,1,32.65,50.38Z"/><path class="cls-2" d="M80.17,16.68l-.09-.09Z"/><path class="cls-2" d="M65.9,89.73l-.1,0Z"/><path class="cls-3" d="M37.09,30.56a1,1,0,0,1-.45-.1,1,1,0,0,1-.61-1V26.64H33.87a6.46,6.46,0,1,1,0-12.91h6.07a6.46,6.46,0,0,1,3.34,12l-4.83,4-.69.57A1,1,0,0,1,37.09,30.56ZM33.87,15.23a5,5,0,1,0,0,9.91h3.66v3.42c3.27-2.73,4.45-3.72,5-4l0-.06a5,5,0,0,0-2.53-9.22Z"/><path class="cls-3" d="M69.85,48.76a.71.71,0,0,1-.53-.22l-1.76-1.75,1.06-1.06L69.85,47l3.32-3.24,1,1.08-3.85,3.75A.77.77,0,0,1,69.85,48.76Z"/><path class="cls-3" d="M69.86,54a.73.73,0,0,1-.53-.22L67.58,52,68.64,51l1.22,1.23L73.18,49l1,1.07-3.85,3.75A.73.73,0,0,1,69.86,54Z"/><circle class="cls-3" cx="70.76" cy="57.23" r="1.53"/><rect class="cls-3" x="76.37" y="45.8" width="8.83" height="1.5"/><rect class="cls-3" x="76.37" y="51.18" width="8.83" height="1.5"/><rect class="cls-3" x="76.37" y="56.48" width="8.83" height="1.5"/><circle class="cls-4" cx="48.38" cy="48.38" r="11.3"/><path class="cls-3" d="M37.18,78.55H26.41a3.08,3.08,0,0,1-3.08-3.08v-4.1a3.08,3.08,0,0,1,3.08-3.08h.66V65.73a2.47,2.47,0,0,1,.85-1.94,4.9,4.9,0,0,1,3.56-.68.75.75,0,0,1,.61.85,5.08,5.08,0,0,0,1.09,3.78c.71.72,2.83,1,4,1a.74.74,0,0,1,.75.75V77.8A.75.75,0,0,1,37.18,78.55ZM26.41,69.79a1.58,1.58,0,0,0-1.58,1.58v4.1a1.58,1.58,0,0,0,1.58,1.58h10V70.2c-1.15-.08-3.29-.36-4.32-1.42a6.15,6.15,0,0,1-1.55-4.24,2.64,2.64,0,0,0-1.67.4.91.91,0,0,0-.32.79V69a.75.75,0,0,1-.75.75Z"/><path class="cls-3" d="M39.43,78.55a.76.76,0,0,1-.75-.75V69.42a.75.75,0,0,1,1.5,0V77.8A.75.75,0,0,1,39.43,78.55Z"/><path class="cls-3" d="M41.68,78.55a.76.76,0,0,1-.75-.75V69.42a.75.75,0,0,1,1.5,0V77.8A.75.75,0,0,1,41.68,78.55Z"/></g></g></svg>